<mxfile host="app.diagrams.net" modified="2023-10-13T17:38:05.228Z" agent="Mozilla/5.0 (Windows NT 10.0; Win64; x64) AppleWebKit/537.36 (KHTML, like Gecko) Chrome/117.0.0.0 Safari/537.36" etag="yDGyowuEUffKC11DfMFj" version="22.0.4" type="device" pages="9">
  <diagram name="Página-1" id="r0XDw0v4P6H4FoGVFIX0">
    <mxGraphModel dx="1105" dy="562" grid="1" gridSize="10" guides="1" tooltips="1" connect="1" arrows="1" fold="1" page="1" pageScale="1" pageWidth="827" pageHeight="1169" math="0" shadow="0">
      <root>
        <mxCell id="0" />
        <mxCell id="1" parent="0" />
        <mxCell id="tYrG7VuhWCVA-aQuii5f-1" value="Computador de&amp;nbsp;&lt;br&gt;Exibição dos Dados" style="image;points=[];aspect=fixed;html=1;align=center;shadow=0;dashed=0;image=img/lib/allied_telesis/computer_and_terminals/Personal_Computer_with_Server.svg;" vertex="1" parent="1">
          <mxGeometry x="634" y="90" width="102.4" height="102.4" as="geometry" />
        </mxCell>
        <mxCell id="tYrG7VuhWCVA-aQuii5f-2" value="Receptor da&lt;br&gt;Telemetria" style="sketch=0;outlineConnect=0;fontColor=#232F3E;gradientColor=none;fillColor=#7AA116;strokeColor=none;dashed=0;verticalLabelPosition=bottom;verticalAlign=top;align=center;html=1;fontSize=12;fontStyle=0;aspect=fixed;pointerEvents=1;shape=mxgraph.aws4.hardware_board;" vertex="1" parent="1">
          <mxGeometry x="375" y="102.19999999999999" width="78" height="78" as="geometry" />
        </mxCell>
        <mxCell id="tYrG7VuhWCVA-aQuii5f-3" style="edgeStyle=orthogonalEdgeStyle;rounded=0;orthogonalLoop=1;jettySize=auto;html=1;strokeWidth=3;strokeColor=#0008FF;" edge="1" parent="1" source="tYrG7VuhWCVA-aQuii5f-4">
          <mxGeometry relative="1" as="geometry">
            <mxPoint x="630" y="140" as="targetPoint" />
          </mxGeometry>
        </mxCell>
        <mxCell id="tYrG7VuhWCVA-aQuii5f-5" value="" style="edgeStyle=orthogonalEdgeStyle;rounded=0;orthogonalLoop=1;jettySize=auto;html=1;strokeWidth=3;strokeColor=#0008FF;" edge="1" parent="1" source="tYrG7VuhWCVA-aQuii5f-2" target="tYrG7VuhWCVA-aQuii5f-4">
          <mxGeometry relative="1" as="geometry">
            <mxPoint x="468" y="141" as="sourcePoint" />
            <mxPoint x="630" y="140" as="targetPoint" />
          </mxGeometry>
        </mxCell>
        <mxCell id="tYrG7VuhWCVA-aQuii5f-4" value="Conversor&lt;br&gt;USB/Serial" style="sketch=0;outlineConnect=0;fontColor=#232F3E;gradientColor=none;strokeColor=#232F3E;fillColor=#ffffff;dashed=0;verticalLabelPosition=bottom;verticalAlign=top;align=center;html=1;fontSize=12;fontStyle=0;aspect=fixed;shape=mxgraph.aws4.resourceIcon;resIcon=mxgraph.aws4.hardware_board;" vertex="1" parent="1">
          <mxGeometry x="510" y="111.19999999999999" width="60" height="60" as="geometry" />
        </mxCell>
        <mxCell id="tYrG7VuhWCVA-aQuii5f-7" value="&lt;font style=&quot;font-size: 8px;&quot;&gt;USB&lt;/font&gt;" style="text;html=1;align=center;verticalAlign=middle;resizable=0;points=[];autosize=1;strokeColor=none;fillColor=none;" vertex="1" parent="1">
          <mxGeometry x="570" y="111.19999999999999" width="40" height="30" as="geometry" />
        </mxCell>
        <mxCell id="tYrG7VuhWCVA-aQuii5f-8" value="&lt;font style=&quot;font-size: 8px;&quot;&gt;Serial&lt;/font&gt;" style="text;html=1;align=center;verticalAlign=middle;resizable=0;points=[];autosize=1;strokeColor=none;fillColor=none;" vertex="1" parent="1">
          <mxGeometry x="460" y="111.19999999999999" width="40" height="30" as="geometry" />
        </mxCell>
        <mxCell id="tYrG7VuhWCVA-aQuii5f-10" style="edgeStyle=orthogonalEdgeStyle;rounded=0;orthogonalLoop=1;jettySize=auto;html=1;" edge="1" parent="1" source="tYrG7VuhWCVA-aQuii5f-9">
          <mxGeometry relative="1" as="geometry">
            <mxPoint x="370" y="141.20000000000005" as="targetPoint" />
          </mxGeometry>
        </mxCell>
        <mxCell id="tYrG7VuhWCVA-aQuii5f-9" value="" style="shape=mxgraph.signs.transportation.car_3;html=1;pointerEvents=1;fillColor=#d5e8d4;strokeColor=#82b366;verticalLabelPosition=bottom;verticalAlign=top;align=center;" vertex="1" parent="1">
          <mxGeometry x="30" y="95.6" width="220" height="91.2" as="geometry" />
        </mxCell>
        <mxCell id="tYrG7VuhWCVA-aQuii5f-6" value="Transmissor da&lt;br&gt;Telemetria Embarcada" style="sketch=0;outlineConnect=0;fontColor=#000000;fillColor=#647687;strokeColor=#314354;dashed=0;verticalLabelPosition=bottom;verticalAlign=top;align=center;html=1;fontSize=12;fontStyle=0;aspect=fixed;pointerEvents=1;shape=mxgraph.aws4.hardware_board;" vertex="1" parent="1">
          <mxGeometry x="130" y="133.2" width="38" height="38" as="geometry" />
        </mxCell>
        <mxCell id="tYrG7VuhWCVA-aQuii5f-11" value="&lt;font style=&quot;font-size: 8px;&quot;&gt;Transmissão Sem fio&lt;/font&gt;" style="text;html=1;align=center;verticalAlign=middle;resizable=0;points=[];autosize=1;strokeColor=none;fillColor=none;" vertex="1" parent="1">
          <mxGeometry x="270" y="111.19999999999999" width="100" height="30" as="geometry" />
        </mxCell>
        <mxCell id="tYrG7VuhWCVA-aQuii5f-12" value="&lt;font style=&quot;font-size: 25px;&quot;&gt;Diagrama de alto nível da Telemetria&lt;/font&gt;" style="text;html=1;align=center;verticalAlign=middle;resizable=0;points=[];autosize=1;strokeColor=none;fillColor=none;" vertex="1" parent="1">
          <mxGeometry x="199" y="20" width="430" height="40" as="geometry" />
        </mxCell>
      </root>
    </mxGraphModel>
  </diagram>
  <diagram id="jwwpfh8tvqf7V76beP8m" name="Página-2">
    <mxGraphModel dx="1167" dy="593" grid="1" gridSize="10" guides="1" tooltips="1" connect="1" arrows="1" fold="1" page="1" pageScale="1" pageWidth="827" pageHeight="1169" math="0" shadow="0">
      <root>
        <mxCell id="0" />
        <mxCell id="1" parent="0" />
        <mxCell id="0x6J6nC7AjMD5BXoS61r-9" value="" style="shape=mxgraph.signs.transportation.car_3;html=1;pointerEvents=1;fillColor=#d5e8d4;strokeColor=#82b366;verticalLabelPosition=bottom;verticalAlign=top;align=center;" vertex="1" parent="1">
          <mxGeometry x="29" y="120" width="770" height="344.4" as="geometry" />
        </mxCell>
        <mxCell id="0x6J6nC7AjMD5BXoS61r-10" value="Sistema de&lt;br&gt;atuação remota" style="sketch=0;outlineConnect=0;fillColor=#647687;strokeColor=#314354;dashed=0;verticalLabelPosition=top;verticalAlign=bottom;align=center;html=1;fontSize=12;fontStyle=0;aspect=fixed;pointerEvents=1;shape=mxgraph.aws4.hardware_board;labelPosition=center;fontColor=#030303;" vertex="1" parent="1">
          <mxGeometry x="420" y="150" width="77" height="77" as="geometry" />
        </mxCell>
        <mxCell id="0x6J6nC7AjMD5BXoS61r-12" value="&lt;font style=&quot;font-size: 25px;&quot;&gt;Diagrama de alto nível Sistema de Atuação Remota - Atuadores&lt;/font&gt;" style="text;html=1;align=center;verticalAlign=middle;resizable=0;points=[];autosize=1;strokeColor=none;fillColor=none;" vertex="1" parent="1">
          <mxGeometry x="55" y="30" width="730" height="40" as="geometry" />
        </mxCell>
        <mxCell id="0x6J6nC7AjMD5BXoS61r-15" value="Servo&lt;br&gt;(Direção)" style="sketch=0;outlineConnect=0;dashed=0;verticalLabelPosition=bottom;verticalAlign=top;align=center;html=1;fontSize=12;fontStyle=0;aspect=fixed;shape=mxgraph.aws4.resourceIcon;resIcon=mxgraph.aws4.servo;fillColor=#d5e8d4;strokeColor=#82b366;" vertex="1" parent="1">
          <mxGeometry x="300" y="262.2" width="60" height="60" as="geometry" />
        </mxCell>
        <mxCell id="0x6J6nC7AjMD5BXoS61r-16" value="Servo&lt;br&gt;(Acelerador)" style="sketch=0;outlineConnect=0;dashed=0;verticalLabelPosition=bottom;verticalAlign=top;align=center;html=1;fontSize=12;fontStyle=0;aspect=fixed;shape=mxgraph.aws4.resourceIcon;resIcon=mxgraph.aws4.servo;fillColor=#d5e8d4;strokeColor=#82b366;" vertex="1" parent="1">
          <mxGeometry x="360" y="262.2" width="60" height="60" as="geometry" />
        </mxCell>
        <mxCell id="0x6J6nC7AjMD5BXoS61r-17" value="Servo&lt;br&gt;(Freio&lt;br&gt;dianteiro)" style="sketch=0;outlineConnect=0;dashed=0;verticalLabelPosition=bottom;verticalAlign=top;align=center;html=1;fontSize=12;fontStyle=0;aspect=fixed;shape=mxgraph.aws4.resourceIcon;resIcon=mxgraph.aws4.servo;fillColor=#d5e8d4;strokeColor=#82b366;" vertex="1" parent="1">
          <mxGeometry x="427" y="262.2" width="60" height="60" as="geometry" />
        </mxCell>
        <mxCell id="0x6J6nC7AjMD5BXoS61r-18" value="Servo&lt;br&gt;(Freio&lt;br&gt;Traseiro)" style="sketch=0;outlineConnect=0;dashed=0;verticalLabelPosition=bottom;verticalAlign=top;align=center;html=1;fontSize=12;fontStyle=0;aspect=fixed;shape=mxgraph.aws4.resourceIcon;resIcon=mxgraph.aws4.servo;fillColor=#d5e8d4;strokeColor=#82b366;" vertex="1" parent="1">
          <mxGeometry x="487" y="262.2" width="60" height="60" as="geometry" />
        </mxCell>
        <mxCell id="0x6J6nC7AjMD5BXoS61r-19" value="Servo&lt;br&gt;(Dead-man&lt;br&gt;switch)" style="sketch=0;outlineConnect=0;dashed=0;verticalLabelPosition=bottom;verticalAlign=top;align=center;html=1;fontSize=12;fontStyle=0;aspect=fixed;shape=mxgraph.aws4.resourceIcon;resIcon=mxgraph.aws4.servo;fillColor=#d5e8d4;strokeColor=#82b366;" vertex="1" parent="1">
          <mxGeometry x="550" y="262.2" width="60" height="60" as="geometry" />
        </mxCell>
        <mxCell id="0x6J6nC7AjMD5BXoS61r-21" value="Solenoide de&lt;br&gt;acionamento da&lt;br&gt;buzina" style="shape=mxgraph.pid.heat_exchangers.heat_exchanger_(coil_tubes);html=1;pointerEvents=1;align=center;verticalLabelPosition=bottom;verticalAlign=top;dashed=0;fillColor=#d5e8d4;strokeColor=#82b366;strokeWidth=2;" vertex="1" parent="1">
          <mxGeometry x="210" y="262.2" width="60" height="20" as="geometry" />
        </mxCell>
        <mxCell id="0x6J6nC7AjMD5BXoS61r-22" style="edgeStyle=orthogonalEdgeStyle;rounded=0;orthogonalLoop=1;jettySize=auto;html=1;entryX=0.557;entryY=0.069;entryDx=0;entryDy=0;entryPerimeter=0;" edge="1" parent="1" source="0x6J6nC7AjMD5BXoS61r-10" target="0x6J6nC7AjMD5BXoS61r-21">
          <mxGeometry relative="1" as="geometry">
            <Array as="points">
              <mxPoint x="243" y="180" />
            </Array>
          </mxGeometry>
        </mxCell>
        <mxCell id="0x6J6nC7AjMD5BXoS61r-23" style="edgeStyle=orthogonalEdgeStyle;rounded=0;orthogonalLoop=1;jettySize=auto;html=1;entryX=0.594;entryY=0.302;entryDx=0;entryDy=0;entryPerimeter=0;" edge="1" parent="1" source="0x6J6nC7AjMD5BXoS61r-10" target="0x6J6nC7AjMD5BXoS61r-15">
          <mxGeometry relative="1" as="geometry">
            <Array as="points">
              <mxPoint x="336" y="190" />
            </Array>
          </mxGeometry>
        </mxCell>
        <mxCell id="0x6J6nC7AjMD5BXoS61r-24" style="edgeStyle=orthogonalEdgeStyle;rounded=0;orthogonalLoop=1;jettySize=auto;html=1;" edge="1" parent="1" source="0x6J6nC7AjMD5BXoS61r-10">
          <mxGeometry relative="1" as="geometry">
            <mxPoint x="391" y="280" as="targetPoint" />
            <Array as="points">
              <mxPoint x="391" y="200" />
            </Array>
          </mxGeometry>
        </mxCell>
        <mxCell id="0x6J6nC7AjMD5BXoS61r-25" style="edgeStyle=orthogonalEdgeStyle;rounded=0;orthogonalLoop=1;jettySize=auto;html=1;entryX=0.525;entryY=0.297;entryDx=0;entryDy=0;entryPerimeter=0;" edge="1" parent="1" source="0x6J6nC7AjMD5BXoS61r-10" target="0x6J6nC7AjMD5BXoS61r-17">
          <mxGeometry relative="1" as="geometry">
            <mxPoint x="460" y="270" as="targetPoint" />
          </mxGeometry>
        </mxCell>
        <mxCell id="0x6J6nC7AjMD5BXoS61r-26" style="edgeStyle=orthogonalEdgeStyle;rounded=0;orthogonalLoop=1;jettySize=auto;html=1;entryX=0.44;entryY=0.264;entryDx=0;entryDy=0;entryPerimeter=0;" edge="1" parent="1" source="0x6J6nC7AjMD5BXoS61r-10" target="0x6J6nC7AjMD5BXoS61r-19">
          <mxGeometry relative="1" as="geometry">
            <Array as="points">
              <mxPoint x="576" y="180" />
            </Array>
          </mxGeometry>
        </mxCell>
        <mxCell id="0x6J6nC7AjMD5BXoS61r-29" style="edgeStyle=orthogonalEdgeStyle;rounded=0;orthogonalLoop=1;jettySize=auto;html=1;entryX=0.55;entryY=0.297;entryDx=0;entryDy=0;entryPerimeter=0;" edge="1" parent="1" source="0x6J6nC7AjMD5BXoS61r-10" target="0x6J6nC7AjMD5BXoS61r-18">
          <mxGeometry relative="1" as="geometry">
            <Array as="points">
              <mxPoint x="520" y="200" />
            </Array>
          </mxGeometry>
        </mxCell>
      </root>
    </mxGraphModel>
  </diagram>
  <diagram name="Cópia do Página-2" id="xP0IMyaK1xJm6YidOW9M">
    <mxGraphModel dx="1313" dy="668" grid="1" gridSize="10" guides="1" tooltips="1" connect="1" arrows="1" fold="1" page="1" pageScale="1" pageWidth="827" pageHeight="1169" math="0" shadow="0">
      <root>
        <mxCell id="LEHlin5wVdeleEOkR1FV-0" />
        <mxCell id="LEHlin5wVdeleEOkR1FV-1" parent="LEHlin5wVdeleEOkR1FV-0" />
        <mxCell id="LEHlin5wVdeleEOkR1FV-4" value="&lt;font style=&quot;font-size: 25px;&quot;&gt;Diagrama de alto nível Sistema de Atuação Remota&lt;br&gt;Sistema mecânico de atuação&lt;br&gt;&lt;/font&gt;" style="text;html=1;align=center;verticalAlign=middle;resizable=0;points=[];autosize=1;strokeColor=none;fillColor=none;" vertex="1" parent="LEHlin5wVdeleEOkR1FV-1">
          <mxGeometry x="120" y="15" width="600" height="70" as="geometry" />
        </mxCell>
        <mxCell id="OzXCUw7EXMYi_F9OFlT7-12" style="edgeStyle=orthogonalEdgeStyle;rounded=0;orthogonalLoop=1;jettySize=auto;html=1;fontFamily=Helvetica;fontSize=12;fontColor=default;" edge="1" parent="LEHlin5wVdeleEOkR1FV-1" source="LEHlin5wVdeleEOkR1FV-5">
          <mxGeometry relative="1" as="geometry">
            <mxPoint x="450" y="250.0000000000001" as="targetPoint" />
          </mxGeometry>
        </mxCell>
        <mxCell id="LEHlin5wVdeleEOkR1FV-5" value="Servo&lt;br&gt;(Direção)" style="sketch=0;outlineConnect=0;dashed=0;verticalLabelPosition=top;verticalAlign=bottom;align=center;html=1;fontSize=12;fontStyle=0;aspect=fixed;shape=mxgraph.aws4.resourceIcon;resIcon=mxgraph.aws4.servo;labelPosition=center;" vertex="1" parent="LEHlin5wVdeleEOkR1FV-1">
          <mxGeometry x="420" y="150" width="60" height="60" as="geometry" />
        </mxCell>
        <mxCell id="OzXCUw7EXMYi_F9OFlT7-9" style="edgeStyle=orthogonalEdgeStyle;rounded=0;orthogonalLoop=1;jettySize=auto;html=1;fontFamily=Helvetica;fontSize=12;fontColor=default;" edge="1" parent="LEHlin5wVdeleEOkR1FV-1" source="LEHlin5wVdeleEOkR1FV-6">
          <mxGeometry relative="1" as="geometry">
            <mxPoint x="210" y="250.0000000000001" as="targetPoint" />
          </mxGeometry>
        </mxCell>
        <mxCell id="LEHlin5wVdeleEOkR1FV-6" value="Servo&lt;br&gt;(Acelerador)" style="sketch=0;outlineConnect=0;dashed=0;verticalLabelPosition=top;verticalAlign=bottom;align=center;html=1;fontSize=12;fontStyle=0;aspect=fixed;shape=mxgraph.aws4.resourceIcon;resIcon=mxgraph.aws4.servo;labelPosition=center;" vertex="1" parent="LEHlin5wVdeleEOkR1FV-1">
          <mxGeometry x="180" y="150" width="60" height="60" as="geometry" />
        </mxCell>
        <mxCell id="OzXCUw7EXMYi_F9OFlT7-8" style="edgeStyle=orthogonalEdgeStyle;rounded=0;orthogonalLoop=1;jettySize=auto;html=1;fontFamily=Helvetica;fontSize=12;fontColor=default;" edge="1" parent="LEHlin5wVdeleEOkR1FV-1" source="LEHlin5wVdeleEOkR1FV-7">
          <mxGeometry relative="1" as="geometry">
            <mxPoint x="90" y="250.0000000000001" as="targetPoint" />
          </mxGeometry>
        </mxCell>
        <mxCell id="LEHlin5wVdeleEOkR1FV-7" value="Servo&lt;br&gt;(Freio&lt;br&gt;dianteiro)" style="sketch=0;outlineConnect=0;dashed=0;verticalLabelPosition=top;verticalAlign=bottom;align=center;html=1;fontSize=12;fontStyle=0;aspect=fixed;shape=mxgraph.aws4.resourceIcon;resIcon=mxgraph.aws4.servo;labelPosition=center;" vertex="1" parent="LEHlin5wVdeleEOkR1FV-1">
          <mxGeometry x="60" y="150" width="60" height="60" as="geometry" />
        </mxCell>
        <mxCell id="OzXCUw7EXMYi_F9OFlT7-11" style="edgeStyle=orthogonalEdgeStyle;rounded=0;orthogonalLoop=1;jettySize=auto;html=1;fontFamily=Helvetica;fontSize=12;fontColor=default;" edge="1" parent="LEHlin5wVdeleEOkR1FV-1" source="LEHlin5wVdeleEOkR1FV-8">
          <mxGeometry relative="1" as="geometry">
            <mxPoint x="330" y="250.0000000000001" as="targetPoint" />
          </mxGeometry>
        </mxCell>
        <mxCell id="LEHlin5wVdeleEOkR1FV-8" value="Servo&lt;br&gt;(Freio&lt;br&gt;Traseiro)" style="sketch=0;outlineConnect=0;dashed=0;verticalLabelPosition=top;verticalAlign=bottom;align=center;html=1;fontSize=12;fontStyle=0;aspect=fixed;shape=mxgraph.aws4.resourceIcon;resIcon=mxgraph.aws4.servo;labelPosition=center;" vertex="1" parent="LEHlin5wVdeleEOkR1FV-1">
          <mxGeometry x="300" y="150" width="60" height="60" as="geometry" />
        </mxCell>
        <mxCell id="OzXCUw7EXMYi_F9OFlT7-16" style="edgeStyle=orthogonalEdgeStyle;rounded=0;orthogonalLoop=1;jettySize=auto;html=1;fontFamily=Helvetica;fontSize=12;fontColor=default;" edge="1" parent="LEHlin5wVdeleEOkR1FV-1" source="LEHlin5wVdeleEOkR1FV-9">
          <mxGeometry relative="1" as="geometry">
            <mxPoint x="570" y="250.0000000000001" as="targetPoint" />
          </mxGeometry>
        </mxCell>
        <mxCell id="LEHlin5wVdeleEOkR1FV-9" value="Servo&lt;br&gt;(Dead-man&lt;br&gt;switch)" style="sketch=0;outlineConnect=0;dashed=0;verticalLabelPosition=top;verticalAlign=bottom;align=center;html=1;fontSize=12;fontStyle=0;aspect=fixed;shape=mxgraph.aws4.resourceIcon;resIcon=mxgraph.aws4.servo;labelPosition=center;" vertex="1" parent="LEHlin5wVdeleEOkR1FV-1">
          <mxGeometry x="540" y="150" width="60" height="60" as="geometry" />
        </mxCell>
        <mxCell id="OzXCUw7EXMYi_F9OFlT7-14" style="edgeStyle=orthogonalEdgeStyle;rounded=0;orthogonalLoop=1;jettySize=auto;html=1;fontFamily=Helvetica;fontSize=12;fontColor=default;" edge="1" parent="LEHlin5wVdeleEOkR1FV-1" source="LEHlin5wVdeleEOkR1FV-10">
          <mxGeometry relative="1" as="geometry">
            <mxPoint x="670" y="260.0000000000001" as="targetPoint" />
          </mxGeometry>
        </mxCell>
        <mxCell id="LEHlin5wVdeleEOkR1FV-10" value="Solenoide de&lt;br&gt;acionamento da&lt;br&gt;buzina" style="shape=mxgraph.pid.heat_exchangers.heat_exchanger_(coil_tubes);html=1;pointerEvents=1;align=center;verticalLabelPosition=top;verticalAlign=bottom;dashed=0;strokeWidth=2;labelPosition=center;" vertex="1" parent="LEHlin5wVdeleEOkR1FV-1">
          <mxGeometry x="640" y="180" width="60" height="20" as="geometry" />
        </mxCell>
        <mxCell id="OzXCUw7EXMYi_F9OFlT7-0" value="Buzina" style="pointerEvents=1;verticalLabelPosition=bottom;shadow=0;dashed=0;align=center;html=1;verticalAlign=top;shape=mxgraph.electrical.electro-mechanical.buzzer;labelBackgroundColor=none;strokeColor=#2D7600;fontFamily=Helvetica;fontSize=12;fontColor=#000000;fillColor=#60a917;strokeWidth=2;" vertex="1" parent="LEHlin5wVdeleEOkR1FV-1">
          <mxGeometry x="650" y="255" width="30" height="50" as="geometry" />
        </mxCell>
        <mxCell id="OzXCUw7EXMYi_F9OFlT7-2" value="Freio dianteiro" style="verticalLabelPosition=bottom;shadow=0;dashed=0;align=center;html=1;verticalAlign=top;strokeWidth=1;shape=trapezoid;perimeter=none;labelBackgroundColor=none;strokeColor=#2D7600;fontFamily=Helvetica;fontSize=12;fontColor=#000000;fillColor=#60a917;" vertex="1" parent="LEHlin5wVdeleEOkR1FV-1">
          <mxGeometry x="70" y="260" width="30" height="35" as="geometry" />
        </mxCell>
        <mxCell id="OzXCUw7EXMYi_F9OFlT7-3" value="Freio traseiro" style="verticalLabelPosition=bottom;shadow=0;dashed=0;align=center;html=1;verticalAlign=top;strokeWidth=1;shape=trapezoid;perimeter=none;labelBackgroundColor=none;strokeColor=#2D7600;fontFamily=Helvetica;fontSize=12;fontColor=#000000;fillColor=#60a917;" vertex="1" parent="LEHlin5wVdeleEOkR1FV-1">
          <mxGeometry x="315" y="260" width="30" height="35" as="geometry" />
        </mxCell>
        <mxCell id="OzXCUw7EXMYi_F9OFlT7-4" value="" style="verticalLabelPosition=bottom;html=1;verticalAlign=top;strokeWidth=2;shape=mxgraph.lean_mapping.physical_pull;pointerEvents=1;labelBackgroundColor=default;strokeColor=#2D7600;align=center;fontFamily=Helvetica;fontSize=12;fontColor=#ffffff;fillColor=#60a917;" vertex="1" parent="LEHlin5wVdeleEOkR1FV-1">
          <mxGeometry x="425" y="260" width="50" height="50" as="geometry" />
        </mxCell>
        <mxCell id="OzXCUw7EXMYi_F9OFlT7-5" value="Acelerador" style="verticalLabelPosition=bottom;shadow=0;dashed=0;align=center;html=1;verticalAlign=top;strokeWidth=1;shape=trapezoid;perimeter=none;labelBackgroundColor=none;strokeColor=#2D7600;fontFamily=Helvetica;fontSize=12;fontColor=#000000;fillColor=#60a917;" vertex="1" parent="LEHlin5wVdeleEOkR1FV-1">
          <mxGeometry x="195" y="260" width="30" height="35" as="geometry" />
        </mxCell>
        <mxCell id="OzXCUw7EXMYi_F9OFlT7-1" value="Dead-man switch" style="sketch=0;html=1;aspect=fixed;strokeColor=#2D7600;shadow=0;fillColor=#60a917;verticalAlign=top;labelPosition=center;verticalLabelPosition=bottom;shape=mxgraph.gcp2.a7_power;labelBackgroundColor=none;align=center;fontFamily=Helvetica;fontSize=12;fontColor=#000000;" vertex="1" parent="LEHlin5wVdeleEOkR1FV-1">
          <mxGeometry x="555" y="265" width="30" height="30" as="geometry" />
        </mxCell>
      </root>
    </mxGraphModel>
  </diagram>
  <diagram name="Cópia do Página-2" id="UNu3tGTzS5NsYSZ4RGT0">
    <mxGraphModel dx="1050" dy="534" grid="1" gridSize="10" guides="1" tooltips="1" connect="1" arrows="1" fold="1" page="1" pageScale="1" pageWidth="827" pageHeight="1169" math="0" shadow="0">
      <root>
        <mxCell id="uPaMdFyTrdMVSmZLyDgW-0" />
        <mxCell id="uPaMdFyTrdMVSmZLyDgW-1" parent="uPaMdFyTrdMVSmZLyDgW-0" />
        <mxCell id="uPaMdFyTrdMVSmZLyDgW-2" value="" style="shape=mxgraph.signs.transportation.car_3;html=1;pointerEvents=1;fillColor=#d5e8d4;strokeColor=#82b366;verticalLabelPosition=bottom;verticalAlign=top;align=center;" vertex="1" parent="uPaMdFyTrdMVSmZLyDgW-1">
          <mxGeometry x="29" y="120" width="770" height="344.4" as="geometry" />
        </mxCell>
        <mxCell id="uPaMdFyTrdMVSmZLyDgW-3" value="Sistema de&lt;br&gt;atuação remota" style="sketch=0;outlineConnect=0;fillColor=#647687;strokeColor=#314354;dashed=0;verticalLabelPosition=top;verticalAlign=bottom;align=center;html=1;fontSize=12;fontStyle=0;aspect=fixed;pointerEvents=1;shape=mxgraph.aws4.hardware_board;labelPosition=center;fontColor=#030303;" vertex="1" parent="uPaMdFyTrdMVSmZLyDgW-1">
          <mxGeometry x="420" y="150" width="77" height="77" as="geometry" />
        </mxCell>
        <mxCell id="uPaMdFyTrdMVSmZLyDgW-4" value="&lt;font style=&quot;font-size: 25px;&quot;&gt;Diagrama de alto nível Sistema de Atuação Remota Completa&lt;/font&gt;" style="text;html=1;align=center;verticalAlign=middle;resizable=0;points=[];autosize=1;strokeColor=none;fillColor=none;" vertex="1" parent="uPaMdFyTrdMVSmZLyDgW-1">
          <mxGeometry x="65" y="30" width="710" height="40" as="geometry" />
        </mxCell>
        <mxCell id="uPaMdFyTrdMVSmZLyDgW-5" value="Servo&lt;br&gt;(Direção)" style="sketch=0;outlineConnect=0;dashed=0;verticalLabelPosition=bottom;verticalAlign=top;align=center;html=1;fontSize=12;fontStyle=0;aspect=fixed;shape=mxgraph.aws4.resourceIcon;resIcon=mxgraph.aws4.servo;fillColor=#d5e8d4;strokeColor=#82b366;" vertex="1" parent="uPaMdFyTrdMVSmZLyDgW-1">
          <mxGeometry x="300" y="262.2" width="60" height="60" as="geometry" />
        </mxCell>
        <mxCell id="uPaMdFyTrdMVSmZLyDgW-6" value="Servo&lt;br&gt;(Acelerador)" style="sketch=0;outlineConnect=0;dashed=0;verticalLabelPosition=bottom;verticalAlign=top;align=center;html=1;fontSize=12;fontStyle=0;aspect=fixed;shape=mxgraph.aws4.resourceIcon;resIcon=mxgraph.aws4.servo;fillColor=#d5e8d4;strokeColor=#82b366;" vertex="1" parent="uPaMdFyTrdMVSmZLyDgW-1">
          <mxGeometry x="360" y="262.2" width="60" height="60" as="geometry" />
        </mxCell>
        <mxCell id="uPaMdFyTrdMVSmZLyDgW-7" value="Servo&lt;br&gt;(Freio&lt;br&gt;dianteiro)" style="sketch=0;outlineConnect=0;dashed=0;verticalLabelPosition=bottom;verticalAlign=top;align=center;html=1;fontSize=12;fontStyle=0;aspect=fixed;shape=mxgraph.aws4.resourceIcon;resIcon=mxgraph.aws4.servo;fillColor=#d5e8d4;strokeColor=#82b366;" vertex="1" parent="uPaMdFyTrdMVSmZLyDgW-1">
          <mxGeometry x="427" y="262.2" width="60" height="60" as="geometry" />
        </mxCell>
        <mxCell id="uPaMdFyTrdMVSmZLyDgW-8" value="Servo&lt;br&gt;(Freio&lt;br&gt;Traseiro)" style="sketch=0;outlineConnect=0;dashed=0;verticalLabelPosition=bottom;verticalAlign=top;align=center;html=1;fontSize=12;fontStyle=0;aspect=fixed;shape=mxgraph.aws4.resourceIcon;resIcon=mxgraph.aws4.servo;fillColor=#d5e8d4;strokeColor=#82b366;" vertex="1" parent="uPaMdFyTrdMVSmZLyDgW-1">
          <mxGeometry x="487" y="262.2" width="60" height="60" as="geometry" />
        </mxCell>
        <mxCell id="uPaMdFyTrdMVSmZLyDgW-9" value="Servo&lt;br&gt;(Dead-man&lt;br&gt;switch)" style="sketch=0;outlineConnect=0;dashed=0;verticalLabelPosition=bottom;verticalAlign=top;align=center;html=1;fontSize=12;fontStyle=0;aspect=fixed;shape=mxgraph.aws4.resourceIcon;resIcon=mxgraph.aws4.servo;fillColor=#d5e8d4;strokeColor=#82b366;" vertex="1" parent="uPaMdFyTrdMVSmZLyDgW-1">
          <mxGeometry x="550" y="262.2" width="60" height="60" as="geometry" />
        </mxCell>
        <mxCell id="uPaMdFyTrdMVSmZLyDgW-10" value="Solenoide de&lt;br&gt;acionamento da&lt;br&gt;buzina" style="shape=mxgraph.pid.heat_exchangers.heat_exchanger_(coil_tubes);html=1;pointerEvents=1;align=center;verticalLabelPosition=bottom;verticalAlign=top;dashed=0;fillColor=#d5e8d4;strokeColor=#82b366;strokeWidth=2;" vertex="1" parent="uPaMdFyTrdMVSmZLyDgW-1">
          <mxGeometry x="210" y="262.2" width="60" height="20" as="geometry" />
        </mxCell>
        <mxCell id="uPaMdFyTrdMVSmZLyDgW-11" style="edgeStyle=orthogonalEdgeStyle;rounded=0;orthogonalLoop=1;jettySize=auto;html=1;entryX=0.557;entryY=0.069;entryDx=0;entryDy=0;entryPerimeter=0;" edge="1" parent="uPaMdFyTrdMVSmZLyDgW-1" source="uPaMdFyTrdMVSmZLyDgW-3" target="uPaMdFyTrdMVSmZLyDgW-10">
          <mxGeometry relative="1" as="geometry">
            <Array as="points">
              <mxPoint x="243" y="180" />
            </Array>
          </mxGeometry>
        </mxCell>
        <mxCell id="uPaMdFyTrdMVSmZLyDgW-12" style="edgeStyle=orthogonalEdgeStyle;rounded=0;orthogonalLoop=1;jettySize=auto;html=1;entryX=0.594;entryY=0.302;entryDx=0;entryDy=0;entryPerimeter=0;" edge="1" parent="uPaMdFyTrdMVSmZLyDgW-1" source="uPaMdFyTrdMVSmZLyDgW-3" target="uPaMdFyTrdMVSmZLyDgW-5">
          <mxGeometry relative="1" as="geometry">
            <Array as="points">
              <mxPoint x="336" y="190" />
            </Array>
          </mxGeometry>
        </mxCell>
        <mxCell id="uPaMdFyTrdMVSmZLyDgW-13" style="edgeStyle=orthogonalEdgeStyle;rounded=0;orthogonalLoop=1;jettySize=auto;html=1;" edge="1" parent="uPaMdFyTrdMVSmZLyDgW-1" source="uPaMdFyTrdMVSmZLyDgW-3">
          <mxGeometry relative="1" as="geometry">
            <mxPoint x="391" y="280" as="targetPoint" />
            <Array as="points">
              <mxPoint x="391" y="200" />
            </Array>
          </mxGeometry>
        </mxCell>
        <mxCell id="uPaMdFyTrdMVSmZLyDgW-14" style="edgeStyle=orthogonalEdgeStyle;rounded=0;orthogonalLoop=1;jettySize=auto;html=1;entryX=0.525;entryY=0.297;entryDx=0;entryDy=0;entryPerimeter=0;" edge="1" parent="uPaMdFyTrdMVSmZLyDgW-1" source="uPaMdFyTrdMVSmZLyDgW-3" target="uPaMdFyTrdMVSmZLyDgW-7">
          <mxGeometry relative="1" as="geometry">
            <mxPoint x="460" y="270" as="targetPoint" />
          </mxGeometry>
        </mxCell>
        <mxCell id="uPaMdFyTrdMVSmZLyDgW-15" style="edgeStyle=orthogonalEdgeStyle;rounded=0;orthogonalLoop=1;jettySize=auto;html=1;entryX=0.44;entryY=0.264;entryDx=0;entryDy=0;entryPerimeter=0;" edge="1" parent="uPaMdFyTrdMVSmZLyDgW-1" source="uPaMdFyTrdMVSmZLyDgW-3" target="uPaMdFyTrdMVSmZLyDgW-9">
          <mxGeometry relative="1" as="geometry">
            <Array as="points">
              <mxPoint x="576" y="190" />
            </Array>
          </mxGeometry>
        </mxCell>
        <mxCell id="uPaMdFyTrdMVSmZLyDgW-16" style="edgeStyle=orthogonalEdgeStyle;rounded=0;orthogonalLoop=1;jettySize=auto;html=1;entryX=0.55;entryY=0.297;entryDx=0;entryDy=0;entryPerimeter=0;" edge="1" parent="uPaMdFyTrdMVSmZLyDgW-1" source="uPaMdFyTrdMVSmZLyDgW-3" target="uPaMdFyTrdMVSmZLyDgW-8">
          <mxGeometry relative="1" as="geometry">
            <Array as="points">
              <mxPoint x="520" y="200" />
            </Array>
          </mxGeometry>
        </mxCell>
        <mxCell id="kF0Nm8XsCUuJFK7UhZOp-2" style="edgeStyle=orthogonalEdgeStyle;rounded=0;orthogonalLoop=1;jettySize=auto;html=1;" edge="1" parent="uPaMdFyTrdMVSmZLyDgW-1" source="kF0Nm8XsCUuJFK7UhZOp-1" target="uPaMdFyTrdMVSmZLyDgW-3">
          <mxGeometry relative="1" as="geometry">
            <Array as="points">
              <mxPoint x="590" y="180" />
              <mxPoint x="590" y="180" />
            </Array>
          </mxGeometry>
        </mxCell>
        <mxCell id="kF0Nm8XsCUuJFK7UhZOp-1" value="&lt;font style=&quot;font-size: 12px;&quot; color=&quot;#000000&quot;&gt;Receptor&lt;br&gt;Sem fio&lt;/font&gt;" style="html=1;strokeWidth=1;shadow=0;dashed=0;shape=mxgraph.ios7.misc.wifi;fillColor=#60a917;strokeColor=#2D7600;buttonText=;strokeColor2=#222222;fontColor=#ffffff;fontSize=8;verticalLabelPosition=bottom;verticalAlign=top;align=center;sketch=0;" vertex="1" parent="uPaMdFyTrdMVSmZLyDgW-1">
          <mxGeometry x="620" y="150" width="60" height="59.7" as="geometry" />
        </mxCell>
      </root>
    </mxGraphModel>
  </diagram>
  <diagram id="q3Lduzckzdcsvd5P_7KV" name="Página-3">
    <mxGraphModel dx="1750" dy="890" grid="1" gridSize="10" guides="1" tooltips="1" connect="1" arrows="1" fold="1" page="1" pageScale="1" pageWidth="827" pageHeight="1169" math="0" shadow="0">
      <root>
        <mxCell id="0" />
        <mxCell id="1" parent="0" />
        <mxCell id="zYVUrMvy7bIjEarBM4gV-1" value="" style="shape=mxgraph.signs.transportation.car_3;html=1;pointerEvents=1;fillColor=#d5e8d4;strokeColor=#82b366;verticalLabelPosition=bottom;verticalAlign=top;align=center;" vertex="1" parent="1">
          <mxGeometry x="20" y="112.5" width="770" height="344.4" as="geometry" />
        </mxCell>
        <mxCell id="zYVUrMvy7bIjEarBM4gV-2" value="Telemetria embarcada" style="sketch=0;outlineConnect=0;fillColor=#647687;strokeColor=#314354;dashed=0;verticalLabelPosition=top;verticalAlign=bottom;align=center;html=1;fontSize=12;fontStyle=0;aspect=fixed;pointerEvents=1;shape=mxgraph.aws4.hardware_board;labelPosition=center;fontColor=#030303;" vertex="1" parent="1">
          <mxGeometry x="285" y="150" width="77" height="77" as="geometry" />
        </mxCell>
        <mxCell id="zYVUrMvy7bIjEarBM4gV-3" value="&lt;font style=&quot;font-size: 25px;&quot;&gt;Diagrama de alto nível Sensores da Telemetria embarcada&lt;/font&gt;" style="text;html=1;align=center;verticalAlign=middle;resizable=0;points=[];autosize=1;strokeColor=none;fillColor=none;" vertex="1" parent="1">
          <mxGeometry x="85" y="30" width="670" height="40" as="geometry" />
        </mxCell>
        <mxCell id="zYVUrMvy7bIjEarBM4gV-19" style="edgeStyle=orthogonalEdgeStyle;rounded=0;orthogonalLoop=1;jettySize=auto;html=1;" edge="1" parent="1" source="zYVUrMvy7bIjEarBM4gV-16">
          <mxGeometry relative="1" as="geometry">
            <mxPoint x="365" y="170" as="targetPoint" />
            <Array as="points">
              <mxPoint x="620" y="170" />
            </Array>
          </mxGeometry>
        </mxCell>
        <mxCell id="zYVUrMvy7bIjEarBM4gV-16" value="Temperatura&lt;br&gt;da bateria" style="verticalLabelPosition=bottom;sketch=0;html=1;fillColor=#d5e8d4;strokeColor=#82b366;verticalAlign=top;align=center;points=[[0,0.5,0],[0.125,0.25,0],[0.25,0,0],[0.5,0,0],[0.75,0,0],[0.875,0.25,0],[1,0.5,0],[0.875,0.75,0],[0.75,1,0],[0.5,1,0],[0.125,0.75,0]];pointerEvents=1;shape=mxgraph.cisco_safe.compositeIcon;bgIcon=mxgraph.cisco_safe.design.blank_device;resIcon=mxgraph.cisco_safe.design.sensor;" vertex="1" parent="1">
          <mxGeometry x="595" y="269.7" width="50" height="45" as="geometry" />
        </mxCell>
        <mxCell id="zYVUrMvy7bIjEarBM4gV-18" style="edgeStyle=orthogonalEdgeStyle;rounded=0;orthogonalLoop=1;jettySize=auto;html=1;" edge="1" parent="1">
          <mxGeometry relative="1" as="geometry">
            <mxPoint x="540" y="269.70000000000005" as="sourcePoint" />
            <mxPoint x="362" y="187.5" as="targetPoint" />
            <Array as="points">
              <mxPoint x="540" y="187.5" />
            </Array>
          </mxGeometry>
        </mxCell>
        <mxCell id="zYVUrMvy7bIjEarBM4gV-17" value="Temperatura&lt;br&gt;do motor" style="verticalLabelPosition=bottom;sketch=0;html=1;fillColor=#d5e8d4;strokeColor=#82b366;verticalAlign=top;align=center;points=[[0,0.5,0],[0.125,0.25,0],[0.25,0,0],[0.5,0,0],[0.75,0,0],[0.875,0.25,0],[1,0.5,0],[0.875,0.75,0],[0.75,1,0],[0.5,1,0],[0.125,0.75,0]];pointerEvents=1;shape=mxgraph.cisco_safe.compositeIcon;bgIcon=mxgraph.cisco_safe.design.blank_device;resIcon=mxgraph.cisco_safe.design.sensor;" vertex="1" parent="1">
          <mxGeometry x="515" y="262.2" width="50" height="45" as="geometry" />
        </mxCell>
        <mxCell id="zYVUrMvy7bIjEarBM4gV-21" style="edgeStyle=orthogonalEdgeStyle;rounded=0;orthogonalLoop=1;jettySize=auto;html=1;" edge="1" parent="1" target="zYVUrMvy7bIjEarBM4gV-2">
          <mxGeometry relative="1" as="geometry">
            <mxPoint x="445" y="300" as="sourcePoint" />
            <Array as="points">
              <mxPoint x="445" y="210" />
            </Array>
          </mxGeometry>
        </mxCell>
        <mxCell id="zYVUrMvy7bIjEarBM4gV-22" value="Sensor hall&lt;br&gt;de rotação&lt;br&gt;" style="verticalLabelPosition=bottom;sketch=0;html=1;fillColor=#d5e8d4;strokeColor=#82b366;verticalAlign=top;align=center;points=[[0,0.5,0],[0.125,0.25,0],[0.25,0,0],[0.5,0,0],[0.75,0,0],[0.875,0.25,0],[1,0.5,0],[0.875,0.75,0],[0.75,1,0],[0.5,1,0],[0.125,0.75,0]];pointerEvents=1;shape=mxgraph.cisco_safe.compositeIcon;bgIcon=mxgraph.cisco_safe.design.blank_device;resIcon=mxgraph.cisco_safe.design.flow_sensor_2;" vertex="1" parent="1">
          <mxGeometry x="425" y="300" width="50" height="45" as="geometry" />
        </mxCell>
        <mxCell id="zYVUrMvy7bIjEarBM4gV-24" value="Sensor de&lt;br&gt;aceleração" style="verticalLabelPosition=bottom;sketch=0;html=1;fillColor=#d5e8d4;strokeColor=#82b366;verticalAlign=top;align=center;points=[[0,0.5,0],[0.125,0.25,0],[0.25,0,0],[0.5,0,0],[0.75,0,0],[0.875,0.25,0],[1,0.5,0],[0.875,0.75,0],[0.75,1,0],[0.5,1,0],[0.125,0.75,0]];pointerEvents=1;shape=mxgraph.cisco_safe.compositeIcon;bgIcon=mxgraph.cisco_safe.design.blank_device;resIcon=mxgraph.cisco_safe.design.flow_sensor_2;" vertex="1" parent="1">
          <mxGeometry x="345" y="300" width="50" height="45" as="geometry" />
        </mxCell>
        <mxCell id="zYVUrMvy7bIjEarBM4gV-26" style="edgeStyle=orthogonalEdgeStyle;rounded=0;orthogonalLoop=1;jettySize=auto;html=1;" edge="1" parent="1" source="zYVUrMvy7bIjEarBM4gV-24" target="zYVUrMvy7bIjEarBM4gV-2">
          <mxGeometry relative="1" as="geometry">
            <Array as="points">
              <mxPoint x="370" y="264" />
              <mxPoint x="324" y="264" />
            </Array>
          </mxGeometry>
        </mxCell>
        <mxCell id="zYVUrMvy7bIjEarBM4gV-27" value="Receptor&lt;br&gt;de GPS" style="html=1;dashed=0;aspect=fixed;verticalLabelPosition=bottom;verticalAlign=top;align=center;shape=mxgraph.gmdl.gps;strokeColor=#2D7600;fillColor=#60a917;shadow=0;strokeWidth=2;sketch=0;fontColor=#0D0D0D;" vertex="1" parent="1">
          <mxGeometry x="245" y="295" width="50" height="50" as="geometry" />
        </mxCell>
        <mxCell id="zYVUrMvy7bIjEarBM4gV-28" style="edgeStyle=orthogonalEdgeStyle;rounded=0;orthogonalLoop=1;jettySize=auto;html=1;entryX=0.13;entryY=0.909;entryDx=0;entryDy=0;entryPerimeter=0;" edge="1" parent="1" source="zYVUrMvy7bIjEarBM4gV-27" target="zYVUrMvy7bIjEarBM4gV-2">
          <mxGeometry relative="1" as="geometry" />
        </mxCell>
      </root>
    </mxGraphModel>
  </diagram>
  <diagram name="Cópia do Página-3" id="UhD9HkbNSIcODxtCig1k">
    <mxGraphModel dx="1909" dy="971" grid="1" gridSize="10" guides="1" tooltips="1" connect="1" arrows="1" fold="1" page="1" pageScale="1" pageWidth="827" pageHeight="1169" math="0" shadow="0">
      <root>
        <mxCell id="3fH5GxxG0Px1eC4YD4Se-0" />
        <mxCell id="3fH5GxxG0Px1eC4YD4Se-1" parent="3fH5GxxG0Px1eC4YD4Se-0" />
        <mxCell id="3fH5GxxG0Px1eC4YD4Se-2" value="" style="shape=mxgraph.signs.transportation.car_3;html=1;pointerEvents=1;fillColor=#d5e8d4;strokeColor=#82b366;verticalLabelPosition=bottom;verticalAlign=top;align=center;" vertex="1" parent="3fH5GxxG0Px1eC4YD4Se-1">
          <mxGeometry x="29" y="120" width="770" height="344.4" as="geometry" />
        </mxCell>
        <mxCell id="3jOMgx1yD_QZ4z9CeMmv-1" style="edgeStyle=orthogonalEdgeStyle;rounded=0;orthogonalLoop=1;jettySize=auto;html=1;" edge="1" parent="3fH5GxxG0Px1eC4YD4Se-1" source="3fH5GxxG0Px1eC4YD4Se-3" target="3jOMgx1yD_QZ4z9CeMmv-0">
          <mxGeometry relative="1" as="geometry">
            <Array as="points">
              <mxPoint x="318" y="200" />
            </Array>
          </mxGeometry>
        </mxCell>
        <mxCell id="3fH5GxxG0Px1eC4YD4Se-3" value="Telemetria embarcada" style="sketch=0;outlineConnect=0;fillColor=#647687;strokeColor=#314354;dashed=0;verticalLabelPosition=top;verticalAlign=bottom;align=center;html=1;fontSize=12;fontStyle=0;aspect=fixed;pointerEvents=1;shape=mxgraph.aws4.hardware_board;labelPosition=center;fontColor=#030303;" vertex="1" parent="3fH5GxxG0Px1eC4YD4Se-1">
          <mxGeometry x="420" y="150" width="77" height="77" as="geometry" />
        </mxCell>
        <mxCell id="3fH5GxxG0Px1eC4YD4Se-4" value="&lt;font style=&quot;font-size: 25px;&quot;&gt;Diagrama de alto nível Telemetria embarcada completa&lt;/font&gt;" style="text;html=1;align=center;verticalAlign=middle;resizable=0;points=[];autosize=1;strokeColor=none;fillColor=none;" vertex="1" parent="3fH5GxxG0Px1eC4YD4Se-1">
          <mxGeometry x="100" y="30" width="640" height="40" as="geometry" />
        </mxCell>
        <mxCell id="3fH5GxxG0Px1eC4YD4Se-5" style="edgeStyle=orthogonalEdgeStyle;rounded=0;orthogonalLoop=1;jettySize=auto;html=1;" edge="1" parent="3fH5GxxG0Px1eC4YD4Se-1" source="3fH5GxxG0Px1eC4YD4Se-6">
          <mxGeometry relative="1" as="geometry">
            <mxPoint x="500" y="170" as="targetPoint" />
            <Array as="points">
              <mxPoint x="755" y="170" />
            </Array>
          </mxGeometry>
        </mxCell>
        <mxCell id="3fH5GxxG0Px1eC4YD4Se-6" value="Temperatura&lt;br&gt;da bateria" style="verticalLabelPosition=bottom;sketch=0;html=1;fillColor=#d5e8d4;strokeColor=#82b366;verticalAlign=top;align=center;points=[[0,0.5,0],[0.125,0.25,0],[0.25,0,0],[0.5,0,0],[0.75,0,0],[0.875,0.25,0],[1,0.5,0],[0.875,0.75,0],[0.75,1,0],[0.5,1,0],[0.125,0.75,0]];pointerEvents=1;shape=mxgraph.cisco_safe.compositeIcon;bgIcon=mxgraph.cisco_safe.design.blank_device;resIcon=mxgraph.cisco_safe.design.sensor;" vertex="1" parent="3fH5GxxG0Px1eC4YD4Se-1">
          <mxGeometry x="730" y="269.7" width="50" height="45" as="geometry" />
        </mxCell>
        <mxCell id="3fH5GxxG0Px1eC4YD4Se-7" style="edgeStyle=orthogonalEdgeStyle;rounded=0;orthogonalLoop=1;jettySize=auto;html=1;" edge="1" parent="3fH5GxxG0Px1eC4YD4Se-1">
          <mxGeometry relative="1" as="geometry">
            <mxPoint x="675" y="269.70000000000005" as="sourcePoint" />
            <mxPoint x="497" y="187.5" as="targetPoint" />
            <Array as="points">
              <mxPoint x="675" y="187.5" />
            </Array>
          </mxGeometry>
        </mxCell>
        <mxCell id="3fH5GxxG0Px1eC4YD4Se-8" value="Temperatura&lt;br&gt;do motor" style="verticalLabelPosition=bottom;sketch=0;html=1;fillColor=#d5e8d4;strokeColor=#82b366;verticalAlign=top;align=center;points=[[0,0.5,0],[0.125,0.25,0],[0.25,0,0],[0.5,0,0],[0.75,0,0],[0.875,0.25,0],[1,0.5,0],[0.875,0.75,0],[0.75,1,0],[0.5,1,0],[0.125,0.75,0]];pointerEvents=1;shape=mxgraph.cisco_safe.compositeIcon;bgIcon=mxgraph.cisco_safe.design.blank_device;resIcon=mxgraph.cisco_safe.design.sensor;" vertex="1" parent="3fH5GxxG0Px1eC4YD4Se-1">
          <mxGeometry x="650" y="262.2" width="50" height="45" as="geometry" />
        </mxCell>
        <mxCell id="3fH5GxxG0Px1eC4YD4Se-9" style="edgeStyle=orthogonalEdgeStyle;rounded=0;orthogonalLoop=1;jettySize=auto;html=1;" edge="1" parent="3fH5GxxG0Px1eC4YD4Se-1" target="3fH5GxxG0Px1eC4YD4Se-3">
          <mxGeometry relative="1" as="geometry">
            <mxPoint x="580" y="300" as="sourcePoint" />
            <Array as="points">
              <mxPoint x="580" y="210" />
            </Array>
          </mxGeometry>
        </mxCell>
        <mxCell id="3fH5GxxG0Px1eC4YD4Se-10" value="Sensor hall&lt;br&gt;de rotação&lt;br&gt;" style="verticalLabelPosition=bottom;sketch=0;html=1;fillColor=#d5e8d4;strokeColor=#82b366;verticalAlign=top;align=center;points=[[0,0.5,0],[0.125,0.25,0],[0.25,0,0],[0.5,0,0],[0.75,0,0],[0.875,0.25,0],[1,0.5,0],[0.875,0.75,0],[0.75,1,0],[0.5,1,0],[0.125,0.75,0]];pointerEvents=1;shape=mxgraph.cisco_safe.compositeIcon;bgIcon=mxgraph.cisco_safe.design.blank_device;resIcon=mxgraph.cisco_safe.design.flow_sensor_2;" vertex="1" parent="3fH5GxxG0Px1eC4YD4Se-1">
          <mxGeometry x="560" y="300" width="50" height="45" as="geometry" />
        </mxCell>
        <mxCell id="3fH5GxxG0Px1eC4YD4Se-11" value="Sensor de&lt;br&gt;aceleração" style="verticalLabelPosition=bottom;sketch=0;html=1;fillColor=#d5e8d4;strokeColor=#82b366;verticalAlign=top;align=center;points=[[0,0.5,0],[0.125,0.25,0],[0.25,0,0],[0.5,0,0],[0.75,0,0],[0.875,0.25,0],[1,0.5,0],[0.875,0.75,0],[0.75,1,0],[0.5,1,0],[0.125,0.75,0]];pointerEvents=1;shape=mxgraph.cisco_safe.compositeIcon;bgIcon=mxgraph.cisco_safe.design.blank_device;resIcon=mxgraph.cisco_safe.design.flow_sensor_2;" vertex="1" parent="3fH5GxxG0Px1eC4YD4Se-1">
          <mxGeometry x="480" y="300" width="50" height="45" as="geometry" />
        </mxCell>
        <mxCell id="3fH5GxxG0Px1eC4YD4Se-12" style="edgeStyle=orthogonalEdgeStyle;rounded=0;orthogonalLoop=1;jettySize=auto;html=1;" edge="1" parent="3fH5GxxG0Px1eC4YD4Se-1" source="3fH5GxxG0Px1eC4YD4Se-11" target="3fH5GxxG0Px1eC4YD4Se-3">
          <mxGeometry relative="1" as="geometry">
            <Array as="points">
              <mxPoint x="505" y="264" />
              <mxPoint x="459" y="264" />
            </Array>
          </mxGeometry>
        </mxCell>
        <mxCell id="3fH5GxxG0Px1eC4YD4Se-13" value="Receptor&lt;br&gt;de GPS" style="html=1;dashed=0;aspect=fixed;verticalLabelPosition=bottom;verticalAlign=top;align=center;shape=mxgraph.gmdl.gps;strokeColor=#2D7600;fillColor=#60a917;shadow=0;strokeWidth=2;sketch=0;fontColor=#0D0D0D;" vertex="1" parent="3fH5GxxG0Px1eC4YD4Se-1">
          <mxGeometry x="380" y="295" width="50" height="50" as="geometry" />
        </mxCell>
        <mxCell id="3fH5GxxG0Px1eC4YD4Se-14" style="edgeStyle=orthogonalEdgeStyle;rounded=0;orthogonalLoop=1;jettySize=auto;html=1;entryX=0.13;entryY=0.909;entryDx=0;entryDy=0;entryPerimeter=0;" edge="1" parent="3fH5GxxG0Px1eC4YD4Se-1" source="3fH5GxxG0Px1eC4YD4Se-13" target="3fH5GxxG0Px1eC4YD4Se-3">
          <mxGeometry relative="1" as="geometry" />
        </mxCell>
        <mxCell id="3jOMgx1yD_QZ4z9CeMmv-0" value="Armazenamento&lt;br&gt;dos dados" style="sketch=0;html=1;aspect=fixed;strokeColor=#2D7600;shadow=0;fillColor=#60a917;verticalAlign=top;labelPosition=center;verticalLabelPosition=bottom;shape=mxgraph.gcp2.memory_card;fontColor=#0D0D0D;" vertex="1" parent="3fH5GxxG0Px1eC4YD4Se-1">
          <mxGeometry x="290" y="280" width="55.8" height="60" as="geometry" />
        </mxCell>
        <mxCell id="3jOMgx1yD_QZ4z9CeMmv-2" value="&lt;font style=&quot;font-size: 12px;&quot; color=&quot;#000000&quot;&gt;Transmissor&lt;br&gt;sem fio&lt;/font&gt;" style="html=1;strokeWidth=1;shadow=0;dashed=0;shape=mxgraph.ios7.misc.wifi;fillColor=#60a917;strokeColor=#2D7600;buttonText=;strokeColor2=#222222;fontColor=#ffffff;fontSize=8;verticalLabelPosition=bottom;verticalAlign=top;align=center;sketch=0;" vertex="1" parent="3fH5GxxG0Px1eC4YD4Se-1">
          <mxGeometry x="200" y="254.7" width="60" height="60" as="geometry" />
        </mxCell>
        <mxCell id="3jOMgx1yD_QZ4z9CeMmv-3" style="edgeStyle=orthogonalEdgeStyle;rounded=0;orthogonalLoop=1;jettySize=auto;html=1;entryX=0.54;entryY=-0.038;entryDx=0;entryDy=0;entryPerimeter=0;" edge="1" parent="3fH5GxxG0Px1eC4YD4Se-1" source="3fH5GxxG0Px1eC4YD4Se-3" target="3jOMgx1yD_QZ4z9CeMmv-2">
          <mxGeometry relative="1" as="geometry">
            <Array as="points">
              <mxPoint x="232" y="190" />
            </Array>
          </mxGeometry>
        </mxCell>
        <mxCell id="w5qIIelqkF2uqywBjxE_-0" value="" style="verticalLabelPosition=bottom;shadow=0;dashed=0;align=center;html=1;verticalAlign=top;shape=mxgraph.electrical.opto_electronics.7_segment_display;pointerEvents=1;labelBackgroundColor=default;strokeColor=#2D7600;fontFamily=Helvetica;fontSize=12;fontColor=#ffffff;fillColor=#60a917;" vertex="1" parent="3fH5GxxG0Px1eC4YD4Se-1">
          <mxGeometry x="40" y="266.65" width="30" height="36.1" as="geometry" />
        </mxCell>
        <mxCell id="w5qIIelqkF2uqywBjxE_-1" value="" style="verticalLabelPosition=bottom;shadow=0;dashed=0;align=center;html=1;verticalAlign=top;shape=mxgraph.electrical.opto_electronics.7_segment_display;pointerEvents=1;labelBackgroundColor=default;strokeColor=#2D7600;fontFamily=Helvetica;fontSize=12;fontColor=#ffffff;fillColor=#60a917;" vertex="1" parent="3fH5GxxG0Px1eC4YD4Se-1">
          <mxGeometry x="70" y="266.65" width="30" height="36.1" as="geometry" />
        </mxCell>
        <mxCell id="w5qIIelqkF2uqywBjxE_-2" value="" style="verticalLabelPosition=bottom;shadow=0;dashed=0;align=center;html=1;verticalAlign=top;shape=mxgraph.electrical.opto_electronics.7_segment_display;pointerEvents=1;labelBackgroundColor=default;strokeColor=#2D7600;fontFamily=Helvetica;fontSize=12;fontColor=#ffffff;fillColor=#60a917;" vertex="1" parent="3fH5GxxG0Px1eC4YD4Se-1">
          <mxGeometry x="120" y="266.65" width="30" height="36.1" as="geometry" />
        </mxCell>
        <mxCell id="w5qIIelqkF2uqywBjxE_-4" style="edgeStyle=orthogonalEdgeStyle;rounded=0;orthogonalLoop=1;jettySize=auto;html=1;fontFamily=Helvetica;fontSize=12;fontColor=default;startArrow=classic;startFill=1;endArrow=none;endFill=0;" edge="1" parent="3fH5GxxG0Px1eC4YD4Se-1" source="w5qIIelqkF2uqywBjxE_-3" target="3fH5GxxG0Px1eC4YD4Se-3">
          <mxGeometry relative="1" as="geometry">
            <Array as="points">
              <mxPoint x="165" y="180" />
            </Array>
          </mxGeometry>
        </mxCell>
        <mxCell id="w5qIIelqkF2uqywBjxE_-3" value="" style="verticalLabelPosition=bottom;shadow=0;dashed=0;align=center;html=1;verticalAlign=top;shape=mxgraph.electrical.opto_electronics.7_segment_display;pointerEvents=1;labelBackgroundColor=default;strokeColor=#2D7600;fontFamily=Helvetica;fontSize=12;fontColor=#ffffff;fillColor=#60a917;" vertex="1" parent="3fH5GxxG0Px1eC4YD4Se-1">
          <mxGeometry x="150" y="266.65" width="30" height="36.1" as="geometry" />
        </mxCell>
        <mxCell id="w5qIIelqkF2uqywBjxE_-6" style="edgeStyle=orthogonalEdgeStyle;rounded=0;orthogonalLoop=1;jettySize=auto;html=1;entryX=0.547;entryY=0.078;entryDx=0;entryDy=0;entryPerimeter=0;fontFamily=Helvetica;fontSize=12;fontColor=default;" edge="1" parent="3fH5GxxG0Px1eC4YD4Se-1" source="3fH5GxxG0Px1eC4YD4Se-3" target="w5qIIelqkF2uqywBjxE_-1">
          <mxGeometry relative="1" as="geometry">
            <Array as="points">
              <mxPoint x="86" y="170" />
            </Array>
          </mxGeometry>
        </mxCell>
        <mxCell id="w5qIIelqkF2uqywBjxE_-7" value="Display&lt;br&gt;Velocímetro" style="text;html=1;align=center;verticalAlign=middle;resizable=0;points=[];autosize=1;strokeColor=none;fillColor=none;fontSize=12;fontFamily=Helvetica;fontColor=default;" vertex="1" parent="3fH5GxxG0Px1eC4YD4Se-1">
          <mxGeometry x="20" y="300" width="90" height="40" as="geometry" />
        </mxCell>
        <mxCell id="w5qIIelqkF2uqywBjxE_-8" value="Display&lt;br&gt;Secundário" style="text;html=1;align=center;verticalAlign=middle;resizable=0;points=[];autosize=1;strokeColor=none;fillColor=none;fontSize=12;fontFamily=Helvetica;fontColor=default;" vertex="1" parent="3fH5GxxG0Px1eC4YD4Se-1">
          <mxGeometry x="105" y="302.5" width="80" height="40" as="geometry" />
        </mxCell>
      </root>
    </mxGraphModel>
  </diagram>
  <diagram id="27P01SJL1CVyMu2NjFyq" name="Página-6">
    <mxGraphModel dx="1050" dy="534" grid="1" gridSize="10" guides="1" tooltips="1" connect="1" arrows="1" fold="1" page="1" pageScale="1" pageWidth="827" pageHeight="1169" math="0" shadow="0">
      <root>
        <mxCell id="0" />
        <mxCell id="1" parent="0" />
        <mxCell id="7fR7OsPjnKj5BIhvFD79-13" value="" style="rounded=1;whiteSpace=wrap;html=1;labelBackgroundColor=default;strokeColor=#82b366;align=center;verticalAlign=top;fontFamily=Helvetica;fontSize=12;fillColor=#d5e8d4;" vertex="1" parent="1">
          <mxGeometry x="150" y="90" width="520" height="300" as="geometry" />
        </mxCell>
        <mxCell id="EcsWx71D8OmLYXibWEQr-4" style="edgeStyle=orthogonalEdgeStyle;rounded=0;orthogonalLoop=1;jettySize=auto;html=1;fontFamily=Helvetica;fontSize=12;fontColor=default;" edge="1" parent="1" target="EcsWx71D8OmLYXibWEQr-1">
          <mxGeometry relative="1" as="geometry">
            <mxPoint x="570" y="260" as="sourcePoint" />
            <Array as="points">
              <mxPoint x="570" y="310" />
            </Array>
          </mxGeometry>
        </mxCell>
        <mxCell id="5j09oION3tfWH-chmUK6-1" value="&lt;font style=&quot;font-size: 25px;&quot;&gt;Diagrama de alto nível Controle remoto&lt;/font&gt;" style="text;html=1;align=center;verticalAlign=middle;resizable=0;points=[];autosize=1;strokeColor=none;fillColor=none;" vertex="1" parent="1">
          <mxGeometry x="190" y="30" width="460" height="40" as="geometry" />
        </mxCell>
        <mxCell id="EcsWx71D8OmLYXibWEQr-3" style="edgeStyle=orthogonalEdgeStyle;rounded=0;orthogonalLoop=1;jettySize=auto;html=1;fontFamily=Helvetica;fontSize=12;fontColor=default;" edge="1" parent="1" source="5j09oION3tfWH-chmUK6-2" target="EcsWx71D8OmLYXibWEQr-1">
          <mxGeometry relative="1" as="geometry">
            <Array as="points">
              <mxPoint x="240" y="310" />
            </Array>
          </mxGeometry>
        </mxCell>
        <mxCell id="5j09oION3tfWH-chmUK6-2" value="Controle esquerdo&lt;br&gt;" style="shape=cross;whiteSpace=wrap;html=1;labelBackgroundColor=none;strokeColor=#2D7600;align=center;verticalAlign=bottom;fontFamily=Helvetica;fontSize=12;fontColor=#000000;fillColor=#60a917;labelPosition=center;verticalLabelPosition=top;" vertex="1" parent="1">
          <mxGeometry x="180" y="140" width="120" height="120" as="geometry" />
        </mxCell>
        <mxCell id="EcsWx71D8OmLYXibWEQr-5" style="edgeStyle=orthogonalEdgeStyle;rounded=0;orthogonalLoop=1;jettySize=auto;html=1;fontFamily=Helvetica;fontSize=12;fontColor=default;" edge="1" parent="1" source="EcsWx71D8OmLYXibWEQr-1" target="EcsWx71D8OmLYXibWEQr-2">
          <mxGeometry relative="1" as="geometry">
            <Array as="points">
              <mxPoint x="488" y="160" />
            </Array>
          </mxGeometry>
        </mxCell>
        <mxCell id="EcsWx71D8OmLYXibWEQr-1" value="Circuito de controle" style="sketch=0;outlineConnect=0;fillColor=#647687;strokeColor=#314354;dashed=0;verticalLabelPosition=bottom;verticalAlign=top;align=center;html=1;fontSize=12;fontStyle=0;aspect=fixed;pointerEvents=1;shape=mxgraph.aws4.hardware_board;labelPosition=center;fontColor=#030303;" vertex="1" parent="1">
          <mxGeometry x="450" y="280" width="77" height="77" as="geometry" />
        </mxCell>
        <mxCell id="EcsWx71D8OmLYXibWEQr-2" value="&lt;font style=&quot;font-size: 12px;&quot; color=&quot;#000000&quot;&gt;Transmissor&lt;br&gt;sem fio&lt;/font&gt;" style="html=1;strokeWidth=1;shadow=0;dashed=0;shape=mxgraph.ios7.misc.wifi;fillColor=#60a917;strokeColor=#2D7600;buttonText=;strokeColor2=#222222;fontColor=#ffffff;fontSize=8;verticalLabelPosition=top;verticalAlign=bottom;align=center;sketch=0;labelPosition=center;" vertex="1" parent="1">
          <mxGeometry x="377" y="130" width="60" height="60" as="geometry" />
        </mxCell>
        <mxCell id="JivFtSL_aoRipOrYxL93-1" value="" style="verticalLabelPosition=bottom;shadow=0;dashed=0;align=center;html=1;verticalAlign=top;shape=mxgraph.electrical.opto_electronics.7_segment_display;pointerEvents=1;labelBackgroundColor=default;strokeColor=#2D7600;fontFamily=Helvetica;fontSize=12;fontColor=#ffffff;fillColor=#60a917;" vertex="1" parent="1">
          <mxGeometry x="370" y="221.95" width="30" height="36.1" as="geometry" />
        </mxCell>
        <mxCell id="JivFtSL_aoRipOrYxL93-2" value="" style="verticalLabelPosition=bottom;shadow=0;dashed=0;align=center;html=1;verticalAlign=top;shape=mxgraph.electrical.opto_electronics.7_segment_display;pointerEvents=1;labelBackgroundColor=default;strokeColor=#2D7600;fontFamily=Helvetica;fontSize=12;fontColor=#ffffff;fillColor=#60a917;" vertex="1" parent="1">
          <mxGeometry x="400" y="221.95" width="30" height="36.1" as="geometry" />
        </mxCell>
        <mxCell id="JivFtSL_aoRipOrYxL93-3" value="Display" style="text;html=1;align=center;verticalAlign=middle;resizable=0;points=[];autosize=1;strokeColor=none;fillColor=none;fontSize=12;fontFamily=Helvetica;fontColor=default;" vertex="1" parent="1">
          <mxGeometry x="370" y="250" width="60" height="30" as="geometry" />
        </mxCell>
        <mxCell id="JivFtSL_aoRipOrYxL93-4" style="edgeStyle=orthogonalEdgeStyle;rounded=0;orthogonalLoop=1;jettySize=auto;html=1;entryX=1;entryY=-0.083;entryDx=0;entryDy=0;entryPerimeter=0;fontFamily=Helvetica;fontSize=12;fontColor=default;" edge="1" parent="1" source="EcsWx71D8OmLYXibWEQr-1" target="JivFtSL_aoRipOrYxL93-3">
          <mxGeometry relative="1" as="geometry">
            <Array as="points">
              <mxPoint x="470" y="248" />
            </Array>
          </mxGeometry>
        </mxCell>
        <mxCell id="JivFtSL_aoRipOrYxL93-5" value="Controle direito" style="shape=cross;whiteSpace=wrap;html=1;labelBackgroundColor=none;strokeColor=#2D7600;align=center;verticalAlign=bottom;fontFamily=Helvetica;fontSize=12;fontColor=#000000;fillColor=#60a917;labelPosition=center;verticalLabelPosition=top;" vertex="1" parent="1">
          <mxGeometry x="520" y="138.05" width="120" height="120" as="geometry" />
        </mxCell>
      </root>
    </mxGraphModel>
  </diagram>
  <diagram id="w4Z1DLaB59wGp5pxD28i" name="Página-7">
    <mxGraphModel dx="1235" dy="628" grid="1" gridSize="10" guides="1" tooltips="1" connect="1" arrows="1" fold="1" page="1" pageScale="1" pageWidth="827" pageHeight="1169" math="0" shadow="0">
      <root>
        <mxCell id="0" />
        <mxCell id="1" parent="0" />
        <mxCell id="30Cp_VhpoujfVRs6Uo9i-1" value="" style="shape=mxgraph.signs.transportation.car_3;html=1;pointerEvents=1;fillColor=#d5e8d4;strokeColor=#82b366;verticalLabelPosition=bottom;verticalAlign=top;align=center;labelBackgroundColor=none;" vertex="1" parent="1">
          <mxGeometry x="29" y="120" width="770" height="344.4" as="geometry" />
        </mxCell>
        <mxCell id="30Cp_VhpoujfVRs6Uo9i-3" value="Controlador do Motor" style="sketch=0;outlineConnect=0;fillColor=#647687;strokeColor=#314354;dashed=0;verticalLabelPosition=top;verticalAlign=bottom;align=center;html=1;fontSize=12;fontStyle=0;aspect=fixed;pointerEvents=1;shape=mxgraph.aws4.hardware_board;labelPosition=center;fontColor=#030303;" vertex="1" parent="1">
          <mxGeometry x="570" y="170" width="77" height="77" as="geometry" />
        </mxCell>
        <mxCell id="30Cp_VhpoujfVRs6Uo9i-4" value="&lt;font style=&quot;font-size: 25px;&quot;&gt;Diagrama de alto nível Powertrain do veículo&lt;/font&gt;" style="text;html=1;align=center;verticalAlign=middle;resizable=0;points=[];autosize=1;strokeColor=none;fillColor=none;" vertex="1" parent="1">
          <mxGeometry x="160" y="30" width="520" height="40" as="geometry" />
        </mxCell>
        <mxCell id="30Cp_VhpoujfVRs6Uo9i-33" style="edgeStyle=orthogonalEdgeStyle;rounded=0;orthogonalLoop=1;jettySize=auto;html=1;entryX=0;entryY=0.5;entryDx=0;entryDy=0;fontFamily=Helvetica;fontSize=12;fontColor=default;" edge="1" parent="1" source="30Cp_VhpoujfVRs6Uo9i-27" target="30Cp_VhpoujfVRs6Uo9i-29">
          <mxGeometry relative="1" as="geometry" />
        </mxCell>
        <mxCell id="30Cp_VhpoujfVRs6Uo9i-27" value="&lt;font color=&quot;#000000&quot;&gt;Bateria&lt;/font&gt;" style="pointerEvents=1;verticalLabelPosition=bottom;shadow=0;dashed=0;align=center;html=1;verticalAlign=top;shape=mxgraph.electrical.miscellaneous.batteryStack;labelBackgroundColor=none;strokeColor=#2D7600;fontFamily=Helvetica;fontSize=12;fontColor=#ffffff;fillColor=#60a917;" vertex="1" parent="1">
          <mxGeometry x="230" y="290" width="100" height="60" as="geometry" />
        </mxCell>
        <mxCell id="30Cp_VhpoujfVRs6Uo9i-34" style="edgeStyle=orthogonalEdgeStyle;rounded=0;orthogonalLoop=1;jettySize=auto;html=1;fontFamily=Helvetica;fontSize=12;fontColor=default;" edge="1" parent="1" source="30Cp_VhpoujfVRs6Uo9i-29" target="30Cp_VhpoujfVRs6Uo9i-3">
          <mxGeometry relative="1" as="geometry">
            <Array as="points">
              <mxPoint x="420" y="209" />
            </Array>
          </mxGeometry>
        </mxCell>
        <mxCell id="30Cp_VhpoujfVRs6Uo9i-29" value="Circuito de Proteção e regulação" style="strokeColor=#dddddd;shadow=1;strokeWidth=1;rounded=1;absoluteArcSize=1;arcSize=2;labelPosition=center;verticalLabelPosition=middle;align=center;verticalAlign=bottom;spacingLeft=0;fontColor=#999999;fontSize=12;whiteSpace=wrap;spacingBottom=2;html=1;labelBackgroundColor=default;fontFamily=Helvetica;fillColor=default;" vertex="1" parent="1">
          <mxGeometry x="379" y="270" width="121" height="100" as="geometry" />
        </mxCell>
        <mxCell id="30Cp_VhpoujfVRs6Uo9i-30" value="" style="sketch=0;dashed=0;connectable=0;html=1;fillColor=#60a917;strokeColor=#2D7600;shape=mxgraph.gcp2.circuit_board;part=1;labelBackgroundColor=default;align=center;verticalAlign=top;fontFamily=Helvetica;fontSize=12;fontColor=#ffffff;" vertex="1" parent="30Cp_VhpoujfVRs6Uo9i-29">
          <mxGeometry x="0.5" width="50" height="45" relative="1" as="geometry">
            <mxPoint x="-25" y="12.5" as="offset" />
          </mxGeometry>
        </mxCell>
        <mxCell id="30Cp_VhpoujfVRs6Uo9i-35" value="&lt;font style=&quot;font-size: 24px;&quot;&gt;Motor&lt;/font&gt;" style="dashed=0;outlineConnect=0;align=center;html=1;shape=mxgraph.pid.engines.electric_motor;fontSize=24;labelBackgroundColor=none;strokeColor=#2D7600;verticalAlign=middle;fontFamily=Helvetica;fontColor=#ffffff;fillColor=#60a917;" vertex="1" parent="1">
          <mxGeometry x="640" y="280" width="100" height="100" as="geometry" />
        </mxCell>
        <mxCell id="30Cp_VhpoujfVRs6Uo9i-36" style="edgeStyle=orthogonalEdgeStyle;rounded=0;orthogonalLoop=1;jettySize=auto;html=1;entryX=0.5;entryY=0;entryDx=0;entryDy=0;entryPerimeter=0;fontFamily=Helvetica;fontSize=12;fontColor=default;" edge="1" parent="1" source="30Cp_VhpoujfVRs6Uo9i-3" target="30Cp_VhpoujfVRs6Uo9i-35">
          <mxGeometry relative="1" as="geometry">
            <Array as="points">
              <mxPoint x="690" y="210" />
            </Array>
          </mxGeometry>
        </mxCell>
        <mxCell id="30Cp_VhpoujfVRs6Uo9i-38" value="Buzina" style="pointerEvents=1;verticalLabelPosition=bottom;shadow=0;dashed=0;align=center;html=1;verticalAlign=top;shape=mxgraph.electrical.electro-mechanical.buzzer;labelBackgroundColor=none;strokeColor=#2D7600;fontFamily=Helvetica;fontSize=12;fontColor=#000000;fillColor=#60a917;strokeWidth=2;" vertex="1" parent="1">
          <mxGeometry x="310" y="197" width="30" height="50" as="geometry" />
        </mxCell>
        <mxCell id="30Cp_VhpoujfVRs6Uo9i-39" style="edgeStyle=orthogonalEdgeStyle;rounded=0;orthogonalLoop=1;jettySize=auto;html=1;entryX=1;entryY=0.665;entryDx=0;entryDy=0;entryPerimeter=0;fontFamily=Helvetica;fontSize=12;fontColor=default;" edge="1" parent="1" source="30Cp_VhpoujfVRs6Uo9i-29" target="30Cp_VhpoujfVRs6Uo9i-38">
          <mxGeometry relative="1" as="geometry">
            <Array as="points">
              <mxPoint x="390" y="230" />
            </Array>
          </mxGeometry>
        </mxCell>
        <mxCell id="30Cp_VhpoujfVRs6Uo9i-45" style="edgeStyle=orthogonalEdgeStyle;rounded=0;orthogonalLoop=1;jettySize=auto;html=1;entryX=1;entryY=0.5;entryDx=0;entryDy=0;fontFamily=Helvetica;fontSize=12;fontColor=default;" edge="1" parent="1" source="30Cp_VhpoujfVRs6Uo9i-44" target="30Cp_VhpoujfVRs6Uo9i-29">
          <mxGeometry relative="1" as="geometry" />
        </mxCell>
        <mxCell id="30Cp_VhpoujfVRs6Uo9i-44" value="Dead-man switch" style="sketch=0;html=1;aspect=fixed;strokeColor=#2D7600;shadow=0;fillColor=#60a917;verticalAlign=top;labelPosition=center;verticalLabelPosition=bottom;shape=mxgraph.gcp2.a7_power;labelBackgroundColor=none;align=center;fontFamily=Helvetica;fontSize=12;fontColor=#000000;" vertex="1" parent="1">
          <mxGeometry x="560" y="305" width="30" height="30" as="geometry" />
        </mxCell>
        <mxCell id="30Cp_VhpoujfVRs6Uo9i-52" style="edgeStyle=orthogonalEdgeStyle;rounded=0;orthogonalLoop=1;jettySize=auto;html=1;entryX=0;entryY=0.25;entryDx=0;entryDy=0;fontFamily=Helvetica;fontSize=12;fontColor=default;" edge="1" parent="1" source="30Cp_VhpoujfVRs6Uo9i-47" target="30Cp_VhpoujfVRs6Uo9i-29">
          <mxGeometry relative="1" as="geometry" />
        </mxCell>
        <mxCell id="30Cp_VhpoujfVRs6Uo9i-47" value="Acelerador" style="verticalLabelPosition=bottom;shadow=0;dashed=0;align=center;html=1;verticalAlign=top;strokeWidth=1;shape=trapezoid;perimeter=none;labelBackgroundColor=none;strokeColor=#2D7600;fontFamily=Helvetica;fontSize=12;fontColor=#000000;fillColor=#60a917;" vertex="1" parent="1">
          <mxGeometry x="190" y="235" width="30" height="35" as="geometry" />
        </mxCell>
        <mxCell id="30Cp_VhpoujfVRs6Uo9i-49" value="Freio dianteiro" style="verticalLabelPosition=bottom;shadow=0;dashed=0;align=center;html=1;verticalAlign=top;strokeWidth=1;shape=trapezoid;perimeter=none;labelBackgroundColor=none;strokeColor=#2D7600;fontFamily=Helvetica;fontSize=12;fontColor=#000000;fillColor=#60a917;" vertex="1" parent="1">
          <mxGeometry x="60" y="305" width="30" height="35" as="geometry" />
        </mxCell>
        <mxCell id="30Cp_VhpoujfVRs6Uo9i-50" value="Freio traseiro" style="verticalLabelPosition=bottom;shadow=0;dashed=0;align=center;html=1;verticalAlign=top;strokeWidth=1;shape=trapezoid;perimeter=none;labelBackgroundColor=none;strokeColor=#2D7600;fontFamily=Helvetica;fontSize=12;fontColor=#000000;fillColor=#60a917;" vertex="1" parent="1">
          <mxGeometry x="750" y="247" width="30" height="35" as="geometry" />
        </mxCell>
      </root>
    </mxGraphModel>
  </diagram>
  <diagram id="0VLSmnXub5709u2Nkb36" name="Página-8">
    <mxGraphModel dx="1050" dy="534" grid="1" gridSize="10" guides="1" tooltips="1" connect="1" arrows="1" fold="1" page="1" pageScale="1" pageWidth="827" pageHeight="1169" math="0" shadow="0">
      <root>
        <mxCell id="0" />
        <mxCell id="1" parent="0" />
      </root>
    </mxGraphModel>
  </diagram>
</mxfile>
